<?xml version="1.0" encoding="utf-8"?>
<!-- Generator: Adobe Illustrator 21.0.2, SVG Export Plug-In . SVG Version: 6.00 Build 0)  -->
<svg version="1.1" id="Layer_1" xmlns="http://www.w3.org/2000/svg" xmlns:xlink="http://www.w3.org/1999/xlink" x="0px" y="0px"
	 viewBox="0 0 2328.1 4488" style="enable-background:new 0 0 2328.1 4488;" xml:space="preserve">
<style type="text/css">
	.st0{fill:#999999;}
</style>
<g id="Layer_x0020_1">
	<g id="_2475397472304">
		<path class="st0" d="M1205.6,2095.1c29.3-6.3,39.8,0.2,64.9-13.8c55-30.7,80.8-52.6,150.9-85.5c36.3-17,70-38.3,104.4-51.9
			c24.6-9.7,94-29.6,126-26.4c14.5,22.8,18.1,63.8,11.2,95.4c-6.9,31.4-21.9,54.3-37,77.8c-21.3,33.3-80.3,84.4-122.2,99.3
			c-61.3,21.7-116.2,35.6-181.2,6c-26.4-12-52.2-21.1-72.2-39.8C1218.4,2126.4,1214.6,2101.6,1205.6,2095.1L1205.6,2095.1z
			 M944.5,2078.1c-10.5,39.7-96.3,60.9-152.1,50.6c-194.5-36-314.7-255.7-247.8-353.9c7.8,9.3,9.1,18.1,13.6,29.1
			c4.8,11.7,10.4,19.8,16.2,28.9c14.1,22,22.2,33.7,37.5,52.4C697.3,1989.9,811,2066.6,944.5,2078.1L944.5,2078.1z M1313.5,925.2
			c20.9-69.5,27.1-160.9,36.4-230.3l-17.8-119.8c-33.2-118.9-84.5-120.3-98.7-148.8c200.5-2,309.4,528.2,262.8,612.8l-11.4,42
			c-19.6-10.6-8.1-13.4-44.5-41.5L1313.5,925.2L1313.5,925.2z M1281.5,4459.2h3.8c0-24.5,4.8-32.7,4.7-58.9
			c-0.1-115,9.8-231,11.5-346.1c0.3-22.4,4.2-30.8,4.2-54.5c0.2-78.7,4.6-145.7,16.8-221.8c6.9-42.7,22.4-172.2,38.6-198.1
			c6.5-10.3,214.6-136.1,306.6-141.5s159.6,5.8,212.7,44c44.8,32.3,76.4,69.6,91.2,108.1c-4.6,58.2-6,68.2-28.2,113.4L1807,3981.9
			c-26.1,54.6-71.4,137-90.6,189c-15.9,43.1-71.8,165-76.3,201.1c8.7-8.5,76.7-154.5,82.1-165.7c26.1-53.4,55.2-106.1,84.6-161.7
			c13.7-25.9,26.9-53.8,40.7-82.5c20.4-42.3,103.4-218.1,110.7-251.9c-0.4,32.4-7.6,86.8-11.7,123.6c-4.3,39.3-4.2,88.4-1.6,131.5
			c7.5-15.9,9.7-82.1,12.8-107.9c8.4-69.2,24.1-137.7,36.2-205.4c7.7-43.2,7.3-59.7,24-95.4c-0.5-0.3-1.5-0.3-1.7-0.3l-8.3,0.3
			c-0.1-3.5,37.4-201.6,45.4-295c12.9-151.4-70.2-315.3-176.9-412.3c-70.2-63.8-133.1-88.7-226.9-172.5
			c-40.8-36.5-68.3-78-97.6-125.2c-32.8-52.9-38.9-80.1-57.7-144c-17.6-60-9.7-120.3-4.4-181.8c34.5-12.8,62.6-23,90-41.9
			c67.4-46.6,120.5-138.1,106.7-228.9c-4.4-28.7-19.8-33.9-4.2-46c-18.4-2.6-14.9-4.5-23-21.9c-23.3-50.2-82.6-138.2-124.2-161.6
			c6.4,18,67.9,83.3,92.4,132.2c5.7,11.2,16.7,25,18.5,38.7c3.6,27.2-49.1,17.6-67.8,19.8c-19.6,2.3-40.6,8.7-56.2,15
			c-34.8,14-67.3,30-103.2,44.7c-84,34.2-187.7,124.2-228.6,76.4c-12.4-14.4-46.6-6.7-39.8-51.1c2-13.1,66.2-90.1,82.5-108.3
			c6.2-6.9,11.7-11.3,18.6-17.7c41.4-38.5,152-143.2,180.6-192.8c67.1-116.3,50.4-108.4,67.1-239.8c4.3-34-9.5-127.8,1.1-146.2
			c25.2-43.7,298.2-186.6,365.3-228.8c61.9-39,105.7-84,153.9-145.7c11.7-15,24.1-26.3,35.1-42.2c18.6-26.9,54.4-56.4,66.1-84.6
			c40.9-98.7-218.4-104-280.9-158.2c-52.4-45.5-35.5-32-75.5-74.2c-103.2-108.9-169-321.5-224.9-380.8
			c-38.6-40.9-54-37.1-103.7-21.4c-73.2,23.1-124.3-82.1-217.9-8.9c-28.2,22.1-52.5,46.5-82.8,66.6l-34.3,21.7
			c-5.8,5.9-3.2,0.6-5.5,8.9c13.9-5.4,24.6-8.3,37.4-16.5c14.1-9.1,20.4-13.9,34.3-22c59.8-35,80.3-74.6,144.9-48
			c145.3,59.9,112.1,12.4,169.3,6.7c36.1-3.6,98.5,81.3,109.3,109.4c44.5,115.7,102.4,229.2,182.3,321.6
			c10.9,12.6,10,16.6,23.7,29.2c14,12.9,44.8,39.6,64.1,48.9c21.4,10.3,55.1,20.4,79.6,27c24.1,6.5,59.6,17.7,81.6,26.4
			c26.5,10.5,92.4,24,59,62.6c-59.1,68.5-104.9,154-174.1,212.2c-58,48.8-124.6,85.6-187.5,126.4l-62.1,37.9
			c-31,19.7-59.8,34.8-86.5,54.2c-21.6,15.7-58.7,42.4-73.5,62.2c-5.2-44.1-13.9-128.9,0.1-167.3c19.1,5.8,1.1,8.4,21,14.3
			c0.1-13.4-6.3-17.2-13.6-27.8c13.7-46.5,22.3-36.4,30.2-101.9c13.6-113.2-28.3-226.9-63-327.2c-19.2-55.6-55.7-129-90.3-172.5
			c-18.6-23.4-41.5-45.6-68.2-61.3c-19.1-11.3-58.8-31.5-81.7-19.2l-8,7.3c60.8,43.2,94.1,119.2,96.4,198.1
			c1.6,53.9-11.3,240.6-28,272.6c-9-3.3-22.1-16.8-29.5-24.1c-12.9-12.6-10.5-16.8-23.3-29.5c-22.2-22-28.6-26.9-47.9-61.8
			c-52.3-94.6-21.9-111-16.4-164c10.6-103.5,44.5-195.9-6.5-296.3c-8.9-17.5-37.4-47.1-54.3-55.6c19.3,46.1,67.9,47.3,65.2,156.3
			c-15.3-8.8-48.3-41-62.4-58.1c-12.4-15-0.4,11-3.8-6.3c-0.9-4.7-1-1.9,2.8-11.8c-35,6.3-52.8-44.2-169.2-71.1
			c-70.2-16.2-138.7-8.1-207.1-33.8c-30-11.3-59.4-24.8-89.7-33.8c-29.7-8.8-66.8-14.2-98.7-20.1c-80.9-14.8-121.1,5.5-142.8,92.3
			c17.2-11.9,28.1-54.1,51-71.8c29.1-22.5,58.7-8.6,90.4-2c68.4,14.3,114.2,31.9,171.4,59.7c31,15.1,52.6,26.1,92.5,27.3
			c90,2.5,210.7-0.1,273.8,70.6c-0.6,0.8-1.7,1.7-2.1,2.2c-0.4,0.5-1.6,1.6-2.1,2.1c-0.5,0.5-1.5,1.5-2.1,2.1l-79.3,78.9
			c-44,48.8-79.5,105.1-114.5,162.8l-41.7,2c15.2,13.3,19,8.3,33.3,16.3C865,682.7,861,741.5,855.6,789.6
			c-11.5,101.5-12.4,226.2,25.7,319c12.3,29.9,43.2,87.4,68.4,102.3c-4-20-47.7-64.3-71.2-145.1c-19.8-68-18.7-120.8-13.3-195.7
			c4-56.2,8.7-84.3,30.8-130.6c16.5-34.4,28.2-79.6,52.1-108c8.1-9.7,6.2-7,15.3-12.4l42.3-39.8c-0.9-5.9-0.1-6.5,6.4-12.7
			c24.3-23.3,149.7-116.9,118.2-157.2c-23.1-29.6-65.5,46.5-101.7,90.1c-8.6,10.4-17.8,16.3-26.2,26.4c-31.1,37.3-37.1,53.2-83.9,70
			c18.6-65.7,134-178.2,175.6-222.6c22.4,9.2,69.9,51.8,84.5,66.4c3.1,48.2-25.5,158.6-36.8,203.6c-21.9,86.8-3.9,122.4,36.9,181.4
			c37.7,54.5,110.1,96.6,108.4,123.1c-2.3,36.2-37,184.6-25.4,204.2c17.8-43.6,24.7-160,48.2-200.1l109.2,85.3
			c8.3,7.2,12.4,12.8,20.5,20.2c10.8,9.8,32.3,27.8,41.8,34.6c-9.4,63.2-69.9,161.2-92.8,227.3c-26.9,77.7-26.3,198.9,10.8,275.3
			c6.8-15-42.4-116.2-4.4-239.6c8.8-28.6,69.7-170.6,84.1-190c0.9,28.1,0.4,56.4,0.5,84.5c0,30.8,5.9,53.7-10.2,68.2
			c0.5,0.4,6,4.1,6.1,4.2l4.1,3.5c-0.4,86.9,0.5,160.5-18.8,232.5c-20.5,76.3-75.9,132.8-119.6,182.2l-115.5,124
			c-10.3,12-15.8,20-26.9,34.1c-7.3,9.2-45.6,60.8-52.8,65.3c-2.8-176.2,42-312.1,117.8-459.1c16.2-31.3,28.3-65.2,43.7-100.4
			l37.4-103.2c10.3-37.1,24-72.8,30.7-114.5c3.2-19.6,8-43.3,8-63.1c0-25.6,3.7-55.8-1-62.8c-6,11.1-6.2,54.5-8.2,70.8
			c-7.8,62.1-27.9,118.2-48.9,178.7c-23.1,66.5-85,194.1-121.7,260.6l-24.6,49.2c-35,79.6-58.5,157.8-58.2,249.8
			c0.7,181.4,19.1,134.5-39.9,149.9c-37.8,9.9-62.9,26.4-106.2,29.2l11.7-57.5c-4.1,5.2-1.7,1.1-5.1,8.7l-5.7,19.6
			c-2.8,10.4-5.4,18.3-10,26.8c-79.4,18.5-180.4-36.3-239.1-78.3c-65.5-47-114.3-93.5-157.7-166.6c-29.5-49.6-12.2-62.8,10.5-113.7
			c18-40.2,34.5-69.5,51.1-113.5c35-92.7,21.9-190.6-27.2-261.3c-92.8-133.6-163.9-287.9-205.2-452.6
			c-13.9-55.6-34.6-241.7-26.9-305C393,377,436.3,358.6,446.7,305.4c-24.1,14.3-53.9,114.4-65.7,147.4
			c-14.8,41.4-24.8,134.3-28,185.5l6.8,101.9c12.3,102.9,28.1,156.3,61.5,254.3c34.7,101.7,70.2,203,128.5,291.4
			c13.8,21,27.2,43.6,39.1,67.3c14.2,28.3,20.9,40.5,25.8,77.2c18.9,140.4-58.4,213-93.4,326c-21.5,69.3-22.5,110.6,3.3,176.6
			c31.3,80.4,51,51.2,68,141.4c9.1,48.4,109.3,235.3,138,281.2c28.5,45.5,55.8,83.4,83.2,125.2c43.6,66.4,82.8,138.3,94.7,221.9
			c5.5,38.2-5.2,59.1-6.9,92.8c-3-14.9,1.2-14.8-5.8-28.3c-18.2,154.2-88.7,271.8-104.6,433.1c-3.4,34.3,5.7,87.5,6.2,124.3
			c1,68.8,13.3,128,29.1,192.3c33.3,136.3,61.2,328,61.1,470.7c8.9-18.3,3.8-54.6,4.3-76.6c2.3-111.1-8.6-137.6-11.5-223.6
			c-7.2-217.3-118-384.3-30.5-677.9l45.7-187.3c4.8-25.5,7.9-13.8,17.8-56.1c29.4-125.9-45.5-251.3-103.3-344.4
			c-50.2-80.8-214.7-304.9-217.7-386c16.3,12.4,28.6,28.7,47.9,42.5c51.6,36.7,136.8,74.4,203.6,64.9c28.2-4,45.4-8,69.5-22.1
			c16.3-9.5,44.5-40.7,49.7-42.3c12.6-3.9,31.1-0.2,44.9-2.1c11.3-1.6,23.2-6,34.3-9.3c19.5-5.8,52.1-19.9,66.6-20
			c-17.5,61-15.7,134.3,10.1,196c6.7,16,12.3,40.7,26.1,48c-10.3-36.2-28.9-71.8-34-114.4c-4-33.4-3.7-100.8,14.3-121.7
			c18.3,6.7,18.4,26.9,23.8,45.7c14,48.6,38.5,101.5,64.8,141.1c27.8,41.9,94.3,119.7,135.3,139.8c-8.9-15.5-18.2-23.5-31-33.4
			c-19.6-15-40-45.5-56.7-65.1c-35.7-41.9-94.4-145.3-96.3-205.5c21,2.1,25.6,9.9,34.2,27.8c21.4,44.6,47.4,73.5,91,96.1
			c59.8,31,124,44.2,191.3,25.1c-4.9,17-10.2,86.4-10.2,111.1c0,30.5,2.3,48.6,6.4,67.4c20.3,95.2,47.2,150.4,100.5,230.1
			c65.9,98.6,163.4,149.6,246.6,206.5c46.6,31.9,87.7,79.4,117.4,124.5c32.1,63.1,62.2,109.7,79.6,171.1
			c18.8,66.6,5.2,135.1-3.9,197.2c-10,68.1-17.2,129.9-36.8,203.2c-15-12.6-21.7-24.6-36.8-40.6c-25.9-27.6-53.7-54.2-88.3-69.3
			c-60.4-26.4-132-34.4-198.1-23.4c-44.7,7.4-93.8,8.2-136.1,16.3c-134,25.6-243,115.6-349,200.3c-9.9,7.9-33.2,21.9-38.6,35.4
			c16.6-2.9,75.6-56.2,91-67.5c68.6-50.3,239-162.1,318.8-152.2c-24.1,5.9-148.7,88.9-168.6,105.4l-2.1-20.4
			c-9.2,17.8-12.9,32.6-28.6,44.7c-78.1,60.4-271.9,197.8-359.4,219.2c-22.1,5.4-54.6,7.3-73.4,16.3l52.4-3.5
			c12.9,39.6,109.6,210,137.7,260.1l108.7,185.9c9.1,16,26,48.9,38.4,57.9c-2.7-17.8-108.5-244.2-123-269.7
			c-24.8-43.5-89.3-134.9-118.3-175.8c-7.5-10.6-11.1-16.6-19.5-29.4l-20.1-32.5c54-0.3,158.1-61.2,202.5-87.7l171.4-115
			c-3.6,13.7-8.8,27.6-13,46.4c-4.1,17.9-6.9,30.6-11,47c-7.7,31-16.8,62.6-22.7,93.6c-17.2,90.8-22.5,233.1-22.7,334.3
			c-0.1,39.5,4,72,3.9,113.9C1276.6,4304.1,1281.2,4379.7,1281.5,4459.2L1281.5,4459.2z"/>
		<path class="st0" d="M891.4,1351.4c1.1-59.8-15.5-126.2-29.4-176.2c14.6,13.7,23.7,28.4,37.3,40.7c120.5,109.5,135.2,73.8,160,91
			c27,18.8-13.7,108.2-16,166.5c-1.2,29.7,16.3,29.7,9.2,54.1c0.8-0.2,2-2.1,2.3-1.3c0.3,0.8,1.8-1.1,2.2-1.2
			c19.7-7.2,13,17.2,51.4,5.3c13.1-32.6,4.4-58-0.2-89.1c-4.8-32.5,10.4-50.6,23-71.9c52.8-89.4,112.1-42.9,130-56.1
			c-58.5-28.3-116.2,0.2-142,44.8c0.3-27.4,88.6-300.8,68.8-336.4c-8.2,19.7-15.2,56.8-22.4,81.8c-18.3,64.2-60.4,193.6-69.7,246
			c-4.8-99.7-30.3-46.3-109.7-88.7c-41.1-22-76.3-54.3-109.7-87.7c-44.4-44.3-25.6-46.5-61.5-139.9c-9.5-24.6-19.8-43.2-30.1-68.7
			c-29.9-74-63.7-140.7-94-210.4l-60.2-141.4c-21.5-53.3-33.6-97.2-47.3-155.4c-15-63.9-14.1-80.8-14.5-140
			c-0.2-23.2-4.6-29.7-4.7-50.5c3.4-9.9,1.4-2.5,7-4.2c-0.7-10.9-1.2-20.1-7.2-28.4c-9.5,12.8-6.2,146.2-4.2,171.6
			c4.2,54.8,17.2,102.4,28.4,155c20.6,97.1,112.7,293.5,159.5,384.5c45.3,88,106.2,229.8,125.3,328L891.4,1351.4L891.4,1351.4z"/>
		<path class="st0" d="M1313.3,3257.7c13.2-21.1,25.7-36.9,42.1-59.8c21.8-30.4,171.1-209.3,173.7-225.2
			c-8.3,3-82.6,90.1-97.7,109.1c-7.6,9.6-25.3,23.1-42.4,47c-10.9,15.2-15.4,18.9-27.5,33.5l-104.9,135.4
			c-16.6,21.9-33.5,42.3-51.6,66.6l-57.6,64.1c-12.8,12.2-14.2,18.1-26.5,34.7c-10.4,14.1-17.2,18.5-14.2,42
			c16.4,11,20.5,11.6,37.8,0.5c45-28.9,52.8-35.6,92.1-73.5l56.5-52.7c10.2-9.1,17.2-19.6,27.4-29.5l138.6-136.9
			c27-24.3,74.8-32.1,104.3-59.9c9.4-8.9,19.8-27.7,11.6-36.6c-29.2-31.9-176.2,127.7-203.6,149.3c-32.4,25.6-62,58.1-91.6,86.5
			l-94.4,80.4L1313.3,3257.7L1313.3,3257.7z"/>
		<path class="st0" d="M2283.7,747.8c1.8-23.5,3.6-48.3,0.2-54.7c-21.7,90.7-8.5,171-65.2,309.7c-5.8,14.2-8.6,26.2-14.7,39
			c-10.3,21.8-25.7,45.4-38.3,68.1c-12.3,21.9-24.3,43.6-38.6,67.8c-15.4,26-29.1,38.2-45.3,60.6c-29.9,41.5-66.6,70.8-105,105.8
			L1746.2,1533c-10.4,9.8-15.4,14.3-26.1,26.6c-16.9,19.5-26.5,15.3-52.2,53.2c-15.1,22.2-55,66.3-57.9,99.6
			c11.9-9.3,10.2-16.3,19.5-31.6c52.2-85.3,170.7-168.1,247.9-225.2c21.3-15.8,37.4-27.2,59.2-45.5c20.9-17.6,41-29.6,59.4-45.3
			c21.3-18.2,42.4-30.3,59.5-49.7c41.9-47.6,54.1-49.2,94.1-117.5c26.2-44.6,55.4-91.5,73.6-144.1c32.5-93.8,25.3-73.6,46.9-168.7
			c2.9-12.5,3.7-26.2,5.6-38.7h0L2283.7,747.8L2283.7,747.8z"/>
		<path class="st0" d="M2267.4,675.2c4.3-110.8-112.9-176.9-192.2-221.2c-31.3-17.5-55.8-33.1-87.9-48.5
			c-28.1-13.5-59.7-29.8-88.6-47.5c-56.2-34.4-159.8-96-205.9-135.6c-14.3-12.2-18.2-28.5-36.3-30.4
			c14.7,39.2,141.9,129.7,182.6,159.1l126.6,78.1c61.5,29.6,122.1,59.9,179.4,92.9c26,15,57.8,40.7,76.9,60.1
			C2261,621.9,2256.1,653.8,2267.4,675.2L2267.4,675.2z"/>
		<path class="st0" d="M692.8,483.9c-68.9,0-73.2-26.7-96.8-26.5c18.1,33.2,76.5,55.2,128,55.2c53.2,0,68.8-25.2,104.5-26.6
			c-21,51.4-23.2,28.3-23.3,114c0,33.4,9.1,62.5,16.6,92l26.9,86.9c2.1-4.4,2.3-2.2,2.1-12.1c-0.7-34.2-39.6-146.6-6-243.1
			c14.8-42.5,71.4-98.4,104.8-109.6c16-5.4,45-5.9,58-10.6c-59.8-7.4-71.9-7.1-114,25.7C837,473.4,783.9,483.9,692.8,483.9
			L692.8,483.9z"/>
		<path class="st0" d="M1204.9,30.6H1116c-38.8,26-134,52-157.2,63.8c21.7,11.5,129.1-33.3,157-41.1c42.6-11.8,97.5,12.9,181.2,12.9
			c43.2,0,169.6-11.8,201.2-0.7c19,6.7,77.5,47.2,94.5,62.7c13.7,12.5,9.9,19.6,26.6,23.4c-11.2-23.9-41.7-50.9-66-69.4
			c-34.8-26.4-40.9-37.1-96.2-40.6C1420.1,39.4,1219.2,38.9,1204.9,30.6L1204.9,30.6z"/>
		<path class="st0" d="M1062.9,1945.6c3.6-134,19-234.6-71.9-343.8c-16.2-19.4-9.3-23.7-21.3-40.5c-2.7,59.7,25.9,51,56.8,178.7
			c7.4,30.8,16.9,66.7,20.7,99.8C1050.5,1870.7,1049.8,1921,1062.9,1945.6z"/>
		<path class="st0" d="M1585.9,1747.8c-7.9-33.8-15.3-21.8-40.9-129.6c-6.7-28-15.2-67.5-25.1-91.3c1.6,17.2,20.8,116.6,25.2,131.3
			c-6.9-17.8-29.8-92.3-48.8-132.8l-5.9-10.7c1.4,8.8,0.4,4.7,3.8,16.8l19.4,62.4C1515.4,1599.6,1580.8,1850.4,1585.9,1747.8
			L1585.9,1747.8z"/>
	</g>
	<polygon class="st0" points="335,1940.5 31,1940.5 31,1970.5 335,1970.5 259.2,2019.7 275.5,2044.9 413.3,1955.5 275.5,1866.2 
		259.2,1891.4 	"/>
	<polygon class="st0" points="657.4,2610.4 31,2610.4 31,2640.4 657.5,2640.4 581.6,2689.6 597.9,2714.8 735.7,2625.4 597.9,2536.1 
		581.6,2561.3 	"/>
	<polygon class="st0" points="595,3227.8 31,3227.8 31,3257.8 595,3257.8 519.1,3307.1 535.5,3332.2 673.2,3242.8 535.5,3153.5 
		519.1,3178.7 	"/>
</g>
</svg>
